P1
#Created by MazeUTFSM ELO329
229 197
0000000000000000000000000000000000000000000000000000000000000000000000000000000000000000000000000000000000000000000000000000000000000000000000000000000000000000000000000000000000000000000000000000000000000000000000000000000000000
0001111111111111111111111111111111111111111111111111111111111111111111111111111111111111111111111111111111111111111111111111111111111111111111111111111111111111111111111111111111111111111111111111111111111111111111111111111111000
0111111111111111111111111111111111111111111111111111111111111111111111111111111111111111111111111111111111111111111111111111111111111111111111111111111111111111111111111111111111111111111111111111111111111111111111111111111111110
0111111111111111111111111111111111111111111111111111111111111111111111111111111111111111111111111111111111111111111111111111111111111111111111111111111111111111111111111111111111111111111111111111111111111111111111111111111111110
0111000000000000000000000000000000000000000000000000000000000000000000000000000000000000000000000000000000000000000000000000000001110000000000000000000000000000000000000000000000000000000000000000000000000000000000000000000001110
0111000000000000000000000000000000000000000000000000000000000000000000000000000000000000000000000000000000000000000000000000000001110000000000000000000000000000000000000000000000000000000000000000000000000000000000000000000001110
0111111111111111111111111111111111111111111111111111111111111111111111111111111111111111111111111111111111111111111111111111111101111111111111111111111111111111111111111111111111111111111111111111111111111111111111111111111101110
0111100000000000000000000000000000000000000000000000000000000000000000000000000000000000000000000000000000000000000000000000000101111000000000000000000000000000000000000000000000000000000000000000000000000000000000000000000101110
0111100000000000000000000000000000000000000000000000000000000000000000000000000000000000000000000000000000000000000000000000000101111000000000000000000000000000000000000000000000000000000000000000000000000000000000000000000101110
0111100000000000000000000000000000000000000000000000000000000000000000000000000000000000000000000000000000000000000000000000000101111000000000000000000000000000000000000000000000000000000000000000000000000000000000000000000101110
0111100000000000000000000000000000000000000000000000000000000000000000000000000000000000000000000000000000000000000000000000000101111000000000000000000000000000000000000000000000000000000000000000000000000000000000000000000101110
0111100000000000000000000000000000000000000000000000000000000000000000000000000000000000000000000000000000000000000000000000000101111000000000000000000000000000000000000000000000000000000000000000000000000000000000000000000101110
0111100000000000000000000000000000000000000000000000000000000000000000000000000000000000000000000000000000000000000000000000000101111000000000000000000000000000000000000000000000000000000000000000000000000000000000000000000101110
0111100000000000000000000000000000000000000000000000000000000000000000000000000000000000000000000000000000000000000000000000000101111000000000000000000000000000000000000000000000000000000000000000000000000000000000000000000101110
0111100000000000000000000000000000000000000000000000000000000000000000000000000000000000000000000000000000000000000000000000000101111000000000000000000000000000000000000000000000000000000000000000000000000000000000000000000101110
0111100000000000000000000000000000000000000000000000000000000000000000000000000000000000000000000000000000000000000000000000000101111000000000000000000000000000000000000000000000000000000000000000000000000000000000000000000101110
0111100000000000000000000000000000000000000000000000000000000000000000000000000000000000000000000000000000000000000000000000000101111000000000000000000000000000000000000000000000000000000000000000000000000000000000000000000101110
0111100000000000000000000000000000000000000000000000000000000000000000000000000000000000000000000000000000000000000000000000000101111000000000000000000000000000000000000000000000000000000000000000000000000000000000000000000101110
0111100000000000000000000000000000000000000000000000000000000000000000000000000000000000000000000000000000000000000000000000000101111000000000000000000000000000000000000000000000000000000000000000000000000000000000000000000101110
0111100000000000000000000000000000000000000000000000000000000000000000000000000000000000000000000000000000000000000000000000000101111000000000000000000000000000000000000000000000000000000000000000000000000000000000000000000101110
0111100000000000000000000000000000000000000000000000000000000000000000000000000000000000000000000000000000000000000000000000000101111000000000000000000000000000000000000000000000000000000000000000000000000000000000000000000101110
0111100000000000000000000000000000000000000000000000000000000000000000000000000000000000000000000000000000000000000000000000000101111000000000000000000000000000000000000000000000000000000000000000000000000000000000000000000101110
0111100000000000000000000000000000000000000000000000000000000000000000000000000000000000000000000000000000000000000000000000000101111000000000000000000000000000000000000000000000000000000000000000000000000000000000000000000101110
0111100000000000000000000000000000000000000000000000000000000000000000000000000000000000000000000000000000000000000000000000000101111000000000000000000000000000000000000000000000000000000000000000000000000000000000000000000101110
0111100000000000000000000000000000000000000000000000000000000000000000000000000000000000000000000000000000000000000000000000000101111000000000000000000000000000000000000000000000000000000000000000000000000000000000000000000101110
0111100000000000000000000000000000000000000000000000000000000000000000000000000000000000000000000000000000000000000000000000000101111000000000000000000000000000000000000000000000000000000000000000000000000000000000000000000101110
0111100000000000000000000000000000000000000000000000000000000000000000000000000000000000000000000000000000000000000000000000000101111000000000000000000000000000000000000000000000000000000000000000000000000000000000000000000101110
0111100000000000000000000000000000000000000000000000000000000000000000000000000000000000000000000000000000000000000000000000000101111000000000000000000000000000000000000000000000000000000000000000000000000000000000000000000101110
0111100000000000000000000000000000000000000000000000000000000000000000000000000000000000000000000000000000000000000000000000000101111000000000000000000000000000000000000000000000000000000000000000000000000000000000000000000101110
0111100000000000000000000000000000000000000000000000000000000000000000000000000000000000000000000000000000000000000000000000000101111000000000000000000000000000000000000000000000000000000000000000000000000000000000000000000101110
0111100000000000000000000000000000000000000000000000000000000000000000000000000000000000000000000000000000000000000000000000000101111000000000000000000000000000000000000000000000000000000000000000000000000000000000000000000101110
0111100000000000000000000000000000000000000000000000000000000000000000000000000000000000000000000000000000000000000000000000000101111000000000000000000000000000000000000000000000000000000000000011111111111111111111111111111101110
0111100000000000000000000000000000000000000000000000000000000000000000000000000000000000000000000000000000000000000000000000000101111000000000000000000000000000000000000000000000000000000000000110000000000000000000000000000001110
0111100000000000000000000000000000011111111111111111111111111111110000000000000000000000000000001111110000000000000000000000000101111000000000000000000000000000000000000000000000000000000000000101111111111111111111111111111111110
0010100000000000000000000000000000111111111111111111111111111111111100000000000000000000000000001010011000000000000000000000000101111000000000000000000000000000001000000000000000000000000000000111111111111111111111111111111111110
0000100000000000000000000000000000011111111111111111111111111111111100000000000000000000000000001111001000000000000000000000000101111000000000000000000000000000011100000000000000000000000000000101111111111111111111111111111111110
0001100000000000000000000000000000000000000000000000000000000000011100000000000000000000000000001111001000000000000000000000000101111000000000000000000000000000011100000000000000000000000000000111111111111111111111111111111101110
0001000000000000000000000000000000000000000000000000000000000000011100000000000000000000000000001111001000000000000000000000000101111000000000000000000000000000011100000000000000000000000000000000000000000000000000000000000101110
0001000000000000000000000000000000000000000000000000000000000000011100000000000000000000000000001111001000000000000000000000000101111000000000000000000000000000011100000000000000000000000000000000000000000000000000000000000101110
0001000000000000000000000000000000000000000000000000000000000000011100000000000000000000000000001111001000000000000000000000000101111000000000000000000000000000011100000000000000000000000000000000000000000000000000000000000101110
0001111111111111111111111111111111111111111111111111111111111111011100000000000000000000000000001111001000000000000000000000000101111000000000000000000000000000011100000000000000000000000000000000000000000000000000000000000101110
0001000000000000000000000000000000000000000000000000000000000001011100000000000000000000000000001111001000000000000000000000000101111000000000000000000000000000011100000000000000000000000000000000000000000000000000000000000101110
0001000000000000000000000000000000000000000000000000000000000001011100000000000000000000000000001111001000000000000000000000000101111000000000000000000000000000011100000000000000000000000000000000000000000000000000000000000101110
0001000000000000000000000000000000000000000000000000000000000001011100000000000000000000000000001111001000000000000000000000000101111000000000000000000000000000011100000000000000000000000000000000000000000000000000000000000101110
0001000000000000000000000000000000000000000000000000000000000001011100000000000000000000000000001111001000000000000000000000000101111000000000000000000000000000011100000000000000000000000000000000000000000000000000000000000101110
0001000000000000000000000000000000000000000000000000000000000001011100000000000000000000000000001111001000000000000000000000000101111000000000000000000000000000011100000000000000000000000000000000000000000000000000000000000101110
0001000000000000000000000000000000000000000000000000000000000001011100000000000000000000000000001111001000000000000000000000000101111000000000000000000000000000011100000000000000000000000000000000000000000000000000000000000101110
0001000000000000000000000000000000000000000000000000000000000001011100000000000000000000000000001111001000000000000000000000000101111000000000000000000000000000011100000000000000000000000000000000000000000000000000000000000101110
0001000000000000000000000000000000000000000000000000000000000001011100000000000000000000000000001111001000000000000000000000000101111000000000000000000000000000011100000000000000000000000000000000000000000000000000000000000101110
0001000000000000000000000000000000000000000000000000000000000001011100000000000000000000000000001111001000000000000000000000000101111000000000000000000000000000011100000000000000000000000000000000000000000000000000000000000101110
0001000000000000000000000000000000000000000000000000000000000001011100000000000000000000000000001111001000000000000000000000000101111000000000000000000000000000011100000000000000000000000000000000000000000000000000000000000101110
0001000000000000000000000000000000000000000000000000000000000001011100000000000000000000000000001111001000000000000000000000000101111000000000000000000000000000011100000000000000000000000000000000000000000000000000000000000101110
0001000000000000000000000000000000000000000000000000000000000001011100000000000000000000000000001111001000000000000000000000000101111000000000000000000000000000011100000000000000000000000000000000000000000000000000000000000101110
0001000000000000000000000000000000000000000000000000000000000001011100000000000000000000000000001111001000000000000000000000000101111000000000000000000000000000011100000000000000000000000000000000000000000000000000000000000101110
0001000000000000000000000000000000000000000000000000000000000001011100000000000000000000000000001111001000000000000000000000000101111000000000000000000000000000011100000000000000000000000000000000000000000000000000000000000101110
0001000000000000000000000000000000000000000000000000000000000001011100000000000000000000000000001111001000000000000000000000000101111000000000000000000000000000011100000000000000000000000000000000000000000000000000000000000101110
0001000000000000000000000000000000000000000000000000000000000001011100000000000000000000000000001111001000000000000000000000000101111000000000000000000000000000011100000000000000000000000000000000000000000000000000000000000101110
0001000000000000000000000000000000000000000000000000000000000001011100000000000000000000000000001111001000000000000000000000000101111000000000000000000000000000011100000000000000000000000000000000000000000000000000000000000101110
0001000000000000000000000000000000000000000000000000000000000001011100000000000000000000000000001111001000000000000000000000000101111000000000000000000000000000011100000000000000000000000000000000000000000000000000000000000101110
0001000000000000000000000000000000000000000000000000000000000001011100000000000000000000000000001111001000000000000000000000000101111000000000000000000000000000011100000000000000000000000000000000000000000000000000000000000101110
0001000000000000000000000000000000000000000000000000000000000001011100000000000000000000000000001111001000000000000000000000000101111000000000000000000000000000011100000000000000000000000000000000000000000000000000000000000101110
0001000000000000000000000000000000000000000000000000000000000001011100000000000000000000000000001111001000000000000000000000000101111000000000000000000000000000011100000000000000000000000000000000000000000000000000000000000101110
0001000000000000000000000000000000000000000000000000000000000001011100000000000000000000000000001111001000000000000000000000000101111000000000000000000000000000011100000000000000000000000000000000000000000000000000000000000101110
0001111111111111111111111111111111111111111111111111111111111111011100000000000000000000000000001111001111111111111111111111111101111000000000000000000000000000011100000000000000000000000000000000000000000000000000000000000101110
0000000000000000000000000000000000000000000000000000000000000000011100000000000000000000000000001111000000000000000000000000000001111000000000000000000000000000011100000000000000000000000000000000000000000000000000000000000101110
0001111111111111111111111111111111111111111111111111111111111111111100000000000000000000000000001111111111111111111111111111111111111000000000000000000000000000011111111111111111111111111111111100000000000000000000000000000101110
0111111111111111111111111111111111111111111111111111111111111111111000000000000000000000000000001011111111111111111111111111111111101000000000000000000000000000011111111111111111111111111111111110000000000000000000000000000101110
0111111111111111111111111111111111111111111111111111111111111111111000000000000000000000000000001101111111111111111111111111111111101000000000000000000000000000011111111111111111111111111111111100000000000000000000000000000101110
0111000000000000000000000000000000000000000000000000000000000000000000000000000000000000000000000111111111111111111111111111111111111000000000000000000000000000011100000000000000000000000000000000000000000000000000000000000101110
0111000000000000000000000000000000000000000000000000000000000000000000000000000000000000000000000000000000000000000000000000000000000000000000000000000000000000011100000000000000000000000000000000000000000000000000000000000101110
0111000000000000000000000000000000000000000000000000000000000000000000000000000000000000000000000000000000000000000000000000000000000000000000000000000000000000011100000000000000000000000000000000000000000000000000000000000101110
0111000000000000000000000000000000000000000000000000000000000000000000000000000000000000000000000000000000000000000000000000000000000000000000000000000000000000011100000000000000000000000000000000000000000000000000000000000101110
0111000000000000000000000000000000000000000000000000000000000000000000000000000000000000000000000000000000000000000000000000000000000000000000000000000000000000011100000000000000000000000000000000000000000000000000000000000101110
0111000000000000000000000000000000000000000000000000000000000000000000000000000000000000000000000000000000000000000000000000000000000000000000000000000000000000011100000000000000000000000000000000000000000000000000000000000101110
0111000000000000000000000000000000000000000000000000000000000000000000000000000000000000000000000000000000000000000000000000000000000000000000000000000000000000011100000000000000000000000000000000000000000000000000000000000101110
0111000000000000000000000000000000000000000000000000000000000000000000000000000000000000000000000000000000000000000000000000000000000000000000000000000000000000011100000000000000000000000000000000000000000000000000000000000101110
0111000000000000000000000000000000000000000000000000000000000000000000000000000000000000000000000000000000000000000000000000000000000000000000000000000000000000011100000000000000000000000000000000000000000000000000000000000101110
0111000000000000000000000000000000000000000000000000000000000000000000000000000000000000000000000000000000000000000000000000000000000000000000000000000000000000011100000000000000000000000000000000000000000000000000000000000101110
0111000000000000000000000000000000000000000000000000000000000000000000000000000000000000000000000000000000000000000000000000000000000000000000000000000000000000011100000000000000000000000000000000000000000000000000000000000101110
0111000000000000000000000000000000000000000000000000000000000000000000000000000000000000000000000000000000000000000000000000000000000000000000000000000000000000011100000000000000000000000000000000000000000000000000000000000101110
0111000000000000000000000000000000000000000000000000000000000000000000000000000000000000000000000000000000000000000000000000000000000000000000000000000000000000011100000000000000000000000000000000000000000000000000000000000101110
0111000000000000000000000000000000000000000000000000000000000000000000000000000000000000000000000000000000000000000000000000000000000000000000000000000000000000011100000000000000000000000000000000000000000000000000000000000101110
0111000000000000000000000000000000000000000000000000000000000000000000000000000000000000000000000000000000000000000000000000000000000000000000000000000000000000011100000000000000000000000000000000000000000000000000000000000101110
0111000000000000000000000000000000000000000000000000000000000000000000000000000000000000000000000000000000000000000000000000000000000000000000000000000000000000011100000000000000000000000000000000000000000000000000000000000101110
0111000000000000000000000000000000000000000000000000000000000000000000000000000000000000000000000000000000000000000000000000000000000000000000000000000000000000011100000000000000000000000000000000000000000000000000000000000101110
0111000000000000000000000000000000000000000000000000000000000000000000000000000000000000000000000000000000000000000000000000000000000000000000000000000000000000011100000000000000000000000000000000000000000000000000000000000101110
0111000000000000000000000000000000000000000000000000000000000000000000000000000000000000000000000000000000000000000000000000000000000000000000000000000000000000011100000000000000000000000000000000000000000000000000000000000101110
0111000000000000000000000000000000000000000000000000000000000000000000000000000000000000000000000000000000000000000000000000000000000000000000000000000000000000011100000000000000000000000000000000000000000000000000000000000101110
0111000000000000000000000000000000000000000000000000000000000000000000000000000000000000000000000000000000000000000000000000000000000000000000000000000000000000011100000000000000000000000000000000000000000000000000000000000101110
0111000000000000000000000000000000000000000000000000000000000000000000000000000000000000000000000000000000000000000000000000000000000000000000000000000000000000011100000000000000000000000000000000000000000000000000000000000101110
0111000000000000000000000000000000000000000000000000000000000000000000000000000000000000000000000000000000000000000000000000000000000000000000000000000000000000011100000000000000000000000000000000000000000000000000000000000101110
0111000000000000000000000000000000000000000000000000000000000000000000000000000000000000000000000000000000000000000000000000000000000000000000000000000000000000011100000000000000000000000000000000000000000000000000000000000101110
0111000000000000000000000000000000000000000000000000000000000000000000000000000000000000000000000000000000000000000000000000000000000000000000000000000000000000011100000000000000000000000000000000000000000000000000000000000101110
0111000000000000000000000000000000000000000000000000000000000000000000000000000000000000000000000000000000000000000000000000000000000000000000000000000000000000011100000000000000000000000000000000000000000000000000000000000101110
0111000000000000000000000000000000000000000000000000000000000000000000000000000000000000000000000000000000000000000000000000000000000000000000000000000000000000011100000000000000000000000000000000000000000000000000000000000101110
0111000000000000000000000000000000000000000000000000000000000000000000000000000000000000000000000000000000000000000000000000000000000000000000000000000000000000011100000000000000000000000000000011111111111111111111111111111101110
0111000000000000000000000000000000000000000000000000000000000000000000000000000000000000000000000000000000000000000000000000000000000000000000000000000000000000011100000000000000000000000000000110000000000000000000000000000001110
0111000000000000000000000000000000000000000000000000000000000000000000000000000000000000000000000001111111111111111111111111111111000000000000000000000000000000011100000000000000000000000000000101111111111111111111111111111111110
0111000000000000000000000000000000100000000000000000000000000000001000000000000000000000000000000011111111111111111111111111111111110000000000000000000000000000011100000000000000000000000000000111111111111111111111111111111111110
0111000000000000000000000000000001110000000000000000000000000000011100000000000000000000000000000001111111111111111111111111111111110000000000000000000000000000011100000000000000000000000000000101111111111111111111111111111111110
0111000000000000000000000000000001110000000000000000000000000000011100000000000000000000000000000000000000000000000000000000000001110000000000000000000000000000011100000000000000000000000000000111111111111111111111111111111101110
0111000000000000000000000000000001110000000000000000000000000000011100000000000000000000000000000000000000000000000000000000000001110000000000000000000000000000011100000000000000000000000000000000000000000000000000000000000101110
0111000000000000000000000000000001110000000000000000000000000000011100000000000000000000000000000000000000000000000000000000000001110000000000000000000000000000011100000000000000000000000000000000000000000000000000000000000101110
0111000000000000000000000000000001110000000000000000000000000000011100000000000000000000000000000000000000000000000000000000000001110000000000000000000000000000011100000000000000000000000000000000000000000000000000000000000101110
0111000000000000000000000000000001110000000000000000000000000000011100000000000000000000000000000000000000000000000000000000000001110000000000000000000000000000011100000000000000000000000000000000000000000000000000000000000101110
0111000000000000000000000000000001110000000000000000000000000000011100000000000000000000000000000000000000000000000000000000000001110000000000000000000000000000011100000000000000000000000000000000000000000000000000000000000101110
0111000000000000000000000000000001110000000000000000000000000000011100000000000000000000000000000000000000000000000000000000000001110000000000000000000000000000011100000000000000000000000000000000000000000000000000000000000101110
0111000000000000000000000000000001110000000000000000000000000000011100000000000000000000000000000000000000000000000000000000000001110000000000000000000000000000011100000000000000000000000000000000000000000000000000000000000101110
0111000000000000000000000000000001110000000000000000000000000000011100000000000000000000000000000000000000000000000000000000000001110000000000000000000000000000011100000000000000000000000000000000000000000000000000000000000101110
0111000000000000000000000000000001110000000000000000000000000000011100000000000000000000000000000000000000000000000000000000000001110000000000000000000000000000011100000000000000000000000000000000000000000000000000000000000101110
0111000000000000000000000000000001110000000000000000000000000000011100000000000000000000000000000000000000000000000000000000000001110000000000000000000000000000011100000000000000000000000000000000000000000000000000000000000101110
0111000000000000000000000000000001110000000000000000000000000000011100000000000000000000000000000000000000000000000000000000000001110000000000000000000000000000011100000000000000000000000000000000000000000000000000000000000101110
0111000000000000000000000000000001110000000000000000000000000000011100000000000000000000000000000000000000000000000000000000000001110000000000000000000000000000011100000000000000000000000000000000000000000000000000000000000101110
0111000000000000000000000000000001110000000000000000000000000000011100000000000000000000000000000000000000000000000000000000000001110000000000000000000000000000011100000000000000000000000000000000000000000000000000000000000101110
0111000000000000000000000000000001110000000000000000000000000000011100000000000000000000000000000000000000000000000000000000000001110000000000000000000000000000011100000000000000000000000000000000000000000000000000000000000101110
0111000000000000000000000000000001110000000000000000000000000000011100000000000000000000000000000000000000000000000000000000000001110000000000000000000000000000011100000000000000000000000000000000000000000000000000000000000101110
0111000000000000000000000000000001110000000000000000000000000000011100000000000000000000000000000000000000000000000000000000000001110000000000000000000000000000011100000000000000000000000000000000000000000000000000000000000101110
0111000000000000000000000000000001110000000000000000000000000000011100000000000000000000000000000000000000000000000000000000000001110000000000000000000000000000011100000000000000000000000000000000000000000000000000000000000101110
0111000000000000000000000000000001110000000000000000000000000000011100000000000000000000000000000000000000000000000000000000000001110000000000000000000000000000011100000000000000000000000000000000000000000000000000000000000101110
0111000000000000000000000000000001110000000000000000000000000000011100000000000000000000000000000000000000000000000000000000000001110000000000000000000000000000011100000000000000000000000000000000000000000000000000000000000101110
0111000000000000000000000000000001110000000000000000000000000000011100000000000000000000000000000000000000000000000000000000000001110000000000000000000000000000011100000000000000000000000000000000000000000000000000000000000101110
0111000000000000000000000000000001110000000000000000000000000000011100000000000000000000000000000000000000000000000000000000000001110000000000000000000000000000011100000000000000000000000000000000000000000000000000000000000101110
0111000000000000000000000000000001110000000000000000000000000000011100000000000000000000000000000000000000000000000000000000000001110000000000000000000000000000011100000000000000000000000000000000000000000000000000000000000101110
0111000000000000000000000000000001110000000000000000000000000000011100000000000000000000000000000000000000000000000000000000000001110000000000000000000000000000011100000000000000000000000000000000000000000000000000000000000101110
0111000000000000000000000000000001110000000000000000000000000000011100000000000000000000000000000000000000000000000000000000000001110000000000000000000000000000011100000000000000000000000000000000000000000000000000000000000101110
0111000000000000000000000000000001110000000000000000000000000000011100000000000000000000000000000000000000000000000000000000000001110000000000000000000000000000011100000000000000000000000000000000000000000000000000000000000101110
0111000000000000000000000000000001110000000000000000000000000000011100000000000000000000000000000000000000000000000000000000000001110000000000000000000000000000011100000000000000000000000000000000000000000000000000000000000101110
0111000000000000000000000000000001110000000000000000000000000000011100000000000000000000000000000000000000000000000000000000000001110000000000000000000000000000011100000000000000000000000000000000000000000000000000000000000101110
0111000000000000000000000000000001110000000000000000000000000000011100000000000000000000000000000000000000000000000000000000000001110000000000000000000000000000011100000000000000000000000000000000000000000000000000000000000101110
0111000000000000000000000000000001110000000000000000000000000000011111111111111111111111111111111100000000000000000000000000000001110000000000000000000000000000011111111111111111111111111111111100000000000000000000000000000101110
0111000000000000000000000000000001110000000000000000000000000000001111111111111111111111111111111111000000000000000000000000000001110000000000000000000000000000011111111111111111111111111111111111000000000000000000000000000101110
0111000000000000000000000000000001110000000000000000000000000000000111111111111111111111111111111111000000000000000000000000000001110000000000000000000000000000011111111111111111111111111111111111000000000000000000000000000101110
0111000000000000000000000000000001110000000000000000000000000000000000000000000000000000000000000111000000000000000000000000000001110000000000000000000000000000011100000000000000000000000000000111000000000000000000000000000101110
0111000000000000000000000000000001110000000000000000000000000000000000000000000000000000000000000111000000000000000000000000000001110000000000000000000000000000011100000000000000000000000000000111000000000000000000000000000101110
0111000000000000000000000000000001110000000000000000000000000000000000000000000000000000000000000111000000000000000000000000000001110000000000000000000000000000011100000000000000000000000000000111000000000000000000000000000101110
0111000000000000000000000000000001110000000000000000000000000000000000000000000000000000000000000111000000000000000000000000000001110000000000000000000000000000011100000000000000000000000000000111000000000000000000000000000101110
0111000000000000000000000000000001110000000000000000000000000000000000000000000000000000000000000111000000000000000000000000000001110000000000000000000000000000011100000000000000000000000000000111000000000000000000000000000101110
0111000000000000000000000000000001110000000000000000000000000000000000000000000000000000000000000111000000000000000000000000000001110000000000000000000000000000011100000000000000000000000000000111000000000000000000000000000101110
0111000000000000000000000000000001110000000000000000000000000000000000000000000000000000000000000111000000000000000000000000000001110000000000000000000000000000011100000000000000000000000000000111000000000000000000000000000101110
0111000000000000000000000000000001110000000000000000000000000000000000000000000000000000000000000111000000000000000000000000000001110000000000000000000000000000011100000000000000000000000000000111000000000000000000000000000101110
0111000000000000000000000000000001110000000000000000000000000000000000000000000000000000000000000111000000000000000000000000000001110000000000000000000000000000011100000000000000000000000000000111000000000000000000000000000101110
0111000000000000000000000000000001110000000000000000000000000000000000000000000000000000000000000111000000000000000000000000000001110000000000000000000000000000011100000000000000000000000000000111000000000000000000000000000101110
0111000000000000000000000000000001110000000000000000000000000000000000000000000000000000000000000111000000000000000000000000000001110000000000000000000000000000011100000000000000000000000000000111000000000000000000000000000101110
0111000000000000000000000000000001110000000000000000000000000000000000000000000000000000000000000111000000000000000000000000000001110000000000000000000000000000011100000000000000000000000000000111000000000000000000000000000101110
0111000000000000000000000000000001110000000000000000000000000000000000000000000000000000000000000111000000000000000000000000000001110000000000000000000000000000011100000000000000000000000000000111000000000000000000000000000101110
0111000000000000000000000000000001110000000000000000000000000000000000000000000000000000000000000111000000000000000000000000000001110000000000000000000000000000011100000000000000000000000000000111000000000000000000000000000101110
0111000000000000000000000000000001110000000000000000000000000000000000000000000000000000000000000111000000000000000000000000000001110000000000000000000000000000011100000000000000000000000000000111000000000000000000000000000101110
0111000000000000000000000000000001110000000000000000000000000000000000000000000000000000000000000111000000000000000000000000000001110000000000000000000000000000011100000000000000000000000000000111000000000000000000000000000101110
0111000000000000000000000000000001110000000000000000000000000000000000000000000000000000000000000111000000000000000000000000000001110000000000000000000000000000011100000000000000000000000000000111000000000000000000000000000101110
0111000000000000000000000000000001110000000000000000000000000000000000000000000000000000000000000111000000000000000000000000000001110000000000000000000000000000011100000000000000000000000000000111000000000000000000000000000101110
0111000000000000000000000000000001110000000000000000000000000000000000000000000000000000000000000111000000000000000000000000000001110000000000000000000000000000011100000000000000000000000000000111000000000000000000000000000101110
0111000000000000000000000000000001110000000000000000000000000000000000000000000000000000000000000111000000000000000000000000000001110000000000000000000000000000011100000000000000000000000000000111000000000000000000000000000101110
0111000000000000000000000000000001110000000000000000000000000000000000000000000000000000000000000111000000000000000000000000000001110000000000000000000000000000011100000000000000000000000000000111000000000000000000000000000101110
0111000000000000000000000000000001110000000000000000000000000000000000000000000000000000000000000111000000000000000000000000000001110000000000000000000000000000011100000000000000000000000000000111000000000000000000000000000101110
0111000000000000000000000000000001110000000000000000000000000000000000000000000000000000000000000111000000000000000000000000000001110000000000000000000000000000011100000000000000000000000000000111000000000000000000000000000101110
0111000000000000000000000000000001110000000000000000000000000000000000000000000000000000000000000111000000000000000000000000000001110000000000000000000000000000011100000000000000000000000000000111000000000000000000000000000101110
0111000000000000000000000000000001110000000000000000000000000000000000000000000000000000000000000111000000000000000000000000000001110000000000000000000000000000011100000000000000000000000000000111000000000000000000000000000101110
0111000000000000000000000000000001110000000000000000000000000000000000000000000000000000000000000111000000000000000000000000000001110000000000000000000000000000011100000000000000000000000000000111000000000000000000000000000101110
0111000000000000000000000000000001110000000000000000000000000000000000000000000000000000000000000111000000000000000000000000000001110000000000000000000000000000011100000000000000000000000000000111000000000000000000000000000101110
0111000000000000000000000000000001110000000000000000000000000000000000000000000000000000000000000111000000000000000000000000000001110000000000000000000000000000011100000000000000000000000000000111000000000000000000000000000101110
0111000000000000000000000000000001110000000000000000000000000000000000000000000000000000000000000111000000000000000000000000000001110000000000000000000000000000011100000000000000000000000000000111000000000000000000000000000101110
0111000000000000000000000000000001111111111111111111111111111111110000000000000000000000000000000111111111111111111111111111111111110000000000000000000000000000011100000000000000000000000000000111000000000000000000000000000101110
0111000000000000000000000000000000111111111111111111111111111111111100000000000000000000000000000011111111111111111111111111111111110000000000000000000000000000001000000000000000000000000000000111000000000000000000000000000110100
0111000000000000000000000000000000011111111111111111111111111111111100000000000000000000000000000001111111111111111111111111111111110000000000000000000000000000000000000000000000000000000000000111000000000000000000000000000011110
0111000000000000000000000000000000000000000000000000000000000000011100000000000000000000000000000000000000000000000000000000000001110000000000000000000000000000000000000000000000000000000000000111000000000000000000000000000000010
0111000000000000000000000000000000000000000000000000000000000000011100000000000000000000000000000000000000000000000000000000000001110000000000000000000000000000000000000000000000000000000000000111000000000000000000000000000000010
0111000000000000000000000000000000000000000000000000000000000000011100000000000000000000000000000000000000000000000000000000000001110000000000000000000000000000000000000000000000000000000000000111000000000000000000000000000000010
0111000000000000000000000000000000000000000000000000000000000000011100000000000000000000000000000000000000000000000000000000000001110000000000000000000000000000000000000000000000000000000000000111000000000000000000000000000000010
0111000000000000000000000000000000000000000000000000000000000000011100000000000000000000000000000000000000000000000000000000000001110000000000000000000000000000000000000000000000000000000000000111000000000000000000000000000000010
0111000000000000000000000000000000000000000000000000000000000000011100000000000000000000000000000000000000000000000000000000000001110000000000000000000000000000000000000000000000000000000000000111000000000000000000000000000000010
0111000000000000000000000000000000000000000000000000000000000000011100000000000000000000000000000000000000000000000000000000000001110000000000000000000000000000000000000000000000000000000000000111000000000000000000000000000000010
0111000000000000000000000000000000000000000000000000000000000000011100000000000000000000000000000000000000000000000000000000000001110000000000000000000000000000000000000000000000000000000000000111000000000000000000000000000000010
0111000000000000000000000000000000000000000000000000000000000000011100000000000000000000000000000000000000000000000000000000000001110000000000000000000000000000000000000000000000000000000000000111000000000000000000000000000000010
0111000000000000000000000000000000000000000000000000000000000000011100000000000000000000000000000000000000000000000000000000000001110000000000000000000000000000000000000000000000000000000000000111000000000000000000000000000000010
0111000000000000000000000000000000000000000000000000000000000000011100000000000000000000000000000000000000000000000000000000000001110000000000000000000000000000000000000000000000000000000000000111000000000000000000000000000000010
0111000000000000000000000000000000000000000000000000000000000000011100000000000000000000000000000000000000000000000000000000000001110000000000000000000000000000000000000000000000000000000000000111000000000000000000000000000000010
0111000000000000000000000000000000000000000000000000000000000000011100000000000000000000000000000000000000000000000000000000000001110000000000000000000000000000000000000000000000000000000000000111000000000000000000000000000000010
0111000000000000000000000000000000000000000000000000000000000000011100000000000000000000000000000000000000000000000000000000000001110000000000000000000000000000000000000000000000000000000000000111000000000000000000000000000000010
0111000000000000000000000000000000000000000000000000000000000000011100000000000000000000000000000000000000000000000000000000000001110000000000000000000000000000000000000000000000000000000000000111000000000000000000000000000000010
0111000000000000000000000000000000000000000000000000000000000000011100000000000000000000000000000000000000000000000000000000000001110000000000000000000000000000000000000000000000000000000000000111000000000000000000000000000000010
0111000000000000000000000000000000000000000000000000000000000000011100000000000000000000000000000000000000000000000000000000000001110000000000000000000000000000000000000000000000000000000000000111000000000000000000000000000000010
0111000000000000000000000000000000000000000000000000000000000000011100000000000000000000000000000000000000000000000000000000000001110000000000000000000000000000000000000000000000000000000000000111000000000000000000000000000000010
0111000000000000000000000000000000000000000000000000000000000000011100000000000000000000000000000000000000000000000000000000000001110000000000000000000000000000000000000000000000000000000000000111000000000000000000000000000000010
0111000000000000000000000000000000000000000000000000000000000000011100000000000000000000000000000000000000000000000000000000000001110000000000000000000000000000000000000000000000000000000000000111000000000000000000000000000000010
0111000000000000000000000000000000000000000000000000000000000000011100000000000000000000000000000000000000000000000000000000000001110000000000000000000000000000000000000000000000000000000000000111000000000000000000000000000000010
0111000000000000000000000000000000000000000000000000000000000000011100000000000000000000000000000000000000000000000000000000000001110000000000000000000000000000000000000000000000000000000000000111000000000000000000000000000000010
0111000000000000000000000000000000000000000000000000000000000000011100000000000000000000000000000000000000000000000000000000000001110000000000000000000000000000000000000000000000000000000000000111000000000000000000000000000000000
0111000000000000000000000000000000000000000000000000000000000000011100000000000000000000000000000000000000000000000000000000000001110000000000000000000000000000000000000000000000000000000000000111000000000000000000000000000000000
0111000000000000000000000000000000000000000000000000000000000000011100000000000000000000000000000000000000000000000000000000000001110000000000000000000000000000000000000000000000000000000000000111000000000000000000000000000000000
0111000000000000000000000000000000000000000000000000000000000000011100000000000000000000000000000000000000000000000000000000000001110000000000000000000000000000000000000000000000000000000000000111000000000000000000000000000000000
0111000000000000000000000000000000000000000000000000000000000000011100000000000000000000000000000000000000000000000000000000000001110000000000000000000000000000000000000000000000000000000000000111000000000000000000000000000000000
0111000000000000000000000000000000000000000000000000000000000000011100000000000000000000000000000000000000000000000000000000000001110000000000000000000000000000000000000000000000000000000000000111000000000000000000000000000000000
0111000000000000000000000000000000000000000000000000000000000000011100000000000000000000000000000000000000000000000000000000000001110000000000000000000000000000000000000000000000000000000000000111000000000000000000000000000000000
0111111111111111111111111111111111111111111111111111111111111111111111111111111111111111111111111111111111111111111111111111111111111111111111111111111111111111111111111111111111111111111111111111111111111111111111111111111111000
0011111111111111111111111111111111111111111111111111111111111111111111111111111111111111111111111111111111111111111111111111111111111111111111111111111111111111111111111111111111111111111111111111111111111111111111111111111111100
0001111111111111111111111111111111111111111111111111111111111111111111111111111111111111111111111111111111111111111111111111111111111111111111111111111111111111111111111111111111111111111111111111111111111111111111111111111111000
0000000000000000000000000000000000000000000000000000000000000000000000000000000000000000000000000000000000000000000000000000000000000000000000000000000000000000000000000000000000000000000000000000000000000000000000000000000000000
