P1
#Created by MazeUTFSM ELO329
70 42
0000000000000000000000000000000000000000000000000000000000000000000000
0000000000000000000000000000000000000000000000000000000000000000000000
0000000000000000000000000000000000000000000000000000000000000000000000
0000000000000000000000000000000000000000000000000000000000000000000000
0000000000000000000000000000000000000000000000000000000000000000000000
0000000000000000000000000000000000000000000000000000000000000000000000
1111111111111111111111111111111111111111111111111111111111111111111000
1111111111111111111111111111111111111111111111111111111111111111111000
1111111111111111111111111111111111111111111111111111111111111111111000
1111111111111111111111111111111111111111111111111111111111111111111000
1111111111111111111111111111111111111111111111111111111111111111111000
1111111111111111111111111111111111111111111111111111111111111111111000
0000000000000000000000000000000000000000000000000000000000000111111000
0000000000000000000000000000000000000000000000000000000000000111111000
0000000000000111111111111111111111111111111111111111111111110111111000
0000000000000000000000000000000000000000000000000000000000010111111000
0000000000000000000000000000000000000000000000000000000000010111111000
0000000000000000000000000000000000000000000000000000000000010111111000
0000000000000000000000000000000000000000000000000000000000010111111000
0000000000000000000000000000000000000000000000000000000000010111111000
0000000000000000000000000000000000000000000000000000000000010111111000
0000000000100000000000000000000000000000000000000000000000010111111000
0000000000100000000000000000000000000000000000000000000000010111111000
0000000000100000000000000000000000000000000000000000000000010111111000
0000000000100000000000000000000000000000000000000000000000010111111000
0000000000100000000000000000000000000000000000000000000000010111111000
0000000000100000000000000000000000000000000000000000000000010111111000
0000000000100000000000000000000000000000000000000000000000010111111000
0000000000111111111111111111111111111111111111111111111111110111111000
0000000000000000000000000000000000000000000000000000000000000111111000
1111111111111111111111111111111111111111111111111111111111111111111000
1111111111111111111111111111111111111111111111111111111111111111111000
1111111111111111111111111111111111111111111111111111111111111111111000
1111111111111111111111111111111111111111111111111111111111111111111000
1111111111111111111111111111111111111111111111111111111111111111111000
1111111111111111111111111111111111111111111111111111111111111111111000
0000000000000000000000000000000000000000000000000000000000000000000000
0000000000000000000000000000000000000000000000000000000000000000000000
0000000000000000000000000000000000000000000000000000000000000000000000
0000000000000000000000000000000000000000000000000000000000000000000000
0000000000000000000000000000000000000000000000000000000000000000000000
0000000000000000000000000000000000000000000000000000000000000000000000
